<?xml version="1.0" standalone="no"?>
<!DOCTYPE svg PUBLIC "-//W3C//DTD SVG 20010904//EN"
 "http://www.w3.org/TR/2001/REC-SVG-20010904/DTD/svg10.dtd">
<svg version="1.0" xmlns="http://www.w3.org/2000/svg"
 width="512.000000pt" height="512.000000pt" viewBox="0 0 512.000000 512.000000"
 preserveAspectRatio="xMidYMid meet">

<g transform="translate(0.000000,512.000000) scale(0.100000,-0.100000)"
fill="#4C4570" stroke="none">
<path d="M2420 5109 c-363 -33 -703 -201 -955 -472 -161 -172 -294 -414 -351
-637 -42 -167 -45 -211 -51 -737 -4 -365 -9 -515 -17 -521 -6 -5 -60 -26 -121
-47 -128 -45 -185 -90 -204 -162 -8 -30 -11 -331 -9 -1055 l3 -1013 23 -42
c29 -55 71 -82 202 -131 383 -142 802 -235 1230 -273 174 -16 606 -16 780 0
446 39 943 154 1298 299 85 35 106 52 136 107 l21 40 3 1013 c2 724 -1 1025
-9 1055 -19 72 -76 117 -204 162 -60 21 -115 42 -121 47 -8 6 -13 156 -17 521
-6 526 -9 570 -51 737 -57 223 -190 465 -351 637 -256 276 -591 439 -970 473
-113 11 -145 10 -265 -1z m240 -509 c334 -35 630 -241 780 -545 94 -191 93
-184 98 -711 l3 -461 -118 22 c-557 107 -1176 106 -1746 -3 l-98 -19 3 461 c5
527 4 520 98 711 93 188 245 344 430 439 134 69 249 100 431 115 9 0 63 -4
119 -9z m1 -2325 c152 -39 268 -165 299 -323 15 -75 9 -137 -21 -217 -17 -47
-38 -76 -96 -134 l-73 -73 0 -329 c0 -371 -5 -412 -56 -469 -45 -49 -90 -70
-154 -70 -64 0 -109 21 -154 70 -51 57 -56 98 -56 469 l0 329 -73 73 c-58 58
-79 87 -96 134 -30 80 -36 142 -21 217 46 236 273 383 501 323z"/>
</g>
</svg>
