<svg version="1.2" xmlns="http://www.w3.org/2000/svg" viewBox="0 0 184 156" width="184" height="156">
	<title>logo_etaure-sem-texto-svg</title>
	<style>
		.s0 { fill: #FFFFFF} 
	</style>
	<g id="Layer">
		<path id="Layer" class="s0" d="m90.8 14.1c-11.9 1.3-22.9 5.8-32.9 13.5-8.9 6.8-17.9 18.5-17.9 23.1 0 4.1 3.3 2.6 6.5-2.9 7.2-12.3 22.4-23.7 36.6-27.4 7.5-2 22.4-2.2 28.7-0.5 4.7 1.3 7.6 0.2 6.6-2.4-1.1-2.7-16.9-4.6-27.6-3.4z"/>
		<path id="Layer" fill-rule="evenodd" class="s0" d="m133.8 24c2.8 0 4.6 1.3 12 8.6 7 7 9.9 9 14.9 10.9 7.8 3 11.3 5.3 11.3 7.4 0 0.9-2 5.7-4.4 10.5-2.5 4.9-4.2 9.4-3.9 10.2 0.5 1.4-1.4 20.5-2.3 22.9-0.5 1.2-4.6 3.5-6.4 3.5-0.5 0-2.1-2.7-3.6-6-1.5-3.3-3-6-3.4-6-0.3 0-3.1 1.8-6.1 4.1-9.7 7.3-32.6 19.3-38.1 20.1-3.8 0.5-2.7-4.3 4-18.7 5.6-12 11.4-26.6 10.9-27.2-0.2-0.2-12.9 4.4-50.7 18.3-5.2 2-12.4 4.6-16 5.9-3.6 1.3-12.1 4.4-19 7-30.4 11.3-32.6 11.8-31.8 7.9 0.3-1.5 8.3-4.7 51.3-20.4 4.4-1.6 13.4-4.9 20-7.3 6.6-2.5 19.8-7.3 29.3-10.8 9.4-3.5 17.2-6.6 17.2-6.9 0-0.3-5.8-3.7-13-7.5-7.1-3.9-13-7.5-13-8.2 0-2.1 6.4-3.4 19.7-4l13.2-0.6 0.7-5.9c0.4-3.8 1.2-6.2 2.3-6.8 0.9-0.5 3.1-1 4.9-1zm0.3 1c-0.4 0-1.5 3.3-2.2 7.2l-1.4 7.3-15.2 0.5c-13.3 0.5-17.7 1.1-16.2 2.3 0.2 0.2 5.4 3 11.4 6.1 6.1 3.1 12 6.5 13.3 7.4l2.3 1.8-3.1 9.3c-3.3 9.8-8.7 22.7-13.9 33-1.7 3.3-3.1 6.5-3.1 7.1 0 2.5 26.8-11.8 37.6-20.2 3.8-2.9 7.2-4.7 8-4.4 0.8 0.3 2.8 3.3 4.4 6.8l2.9 6.1 1.2-2.9c0.6-1.6 1.3-7.6 1.6-13.4 0.4-9.3 0.8-11.3 3.8-17.5 5.6-11.6 5.7-11-2.7-15-4-1.9-7.7-3.5-8.3-3.5-0.5 0-5.2-4.1-10.2-9-5.1-5-9.7-9-10.2-9z"/>
		<path id="Layer" class="s0" d="m52 60.5c-15.1 5.6-28.4 10.9-29.4 11.7-2.1 1.5-1.5 3.8 1 3.8 2.6 0 59.7-21.8 60.5-23.1 1.1-1.8 0.2-2.9-2.4-2.8-1.2 0-14.6 4.7-29.7 10.4z"/>
		<path id="Layer" class="s0" d="m64.7 111.9c-12.5 4.8-23.7 9.2-24.7 9.9-2.1 1.2-1.7 4.2 0.5 4.2 0.6 0 12.6-4.3 26.6-9.5 13.9-5.2 25.4-9.5 25.6-9.5 0.2 0 0.3-0.9 0.3-2 0-3.3-3.9-2.3-28.3 6.9z"/>
		<path id="Layer" class="s0" d="m147.6 113.9c-8.2 11.2-21.4 20.2-34.2 23.5-7.8 2-22.2 2.1-29.9 0.1-3.3-0.9-8.9-2.9-12.3-4.6-6.5-3.2-9.2-3-7.8 0.6 0.8 2.1 11.9 7.1 19.9 9 8 1.9 22.5 1.9 30.6 0 9.2-2.2 21.4-8.9 28.9-15.9 7.4-6.9 12.6-14.1 11.8-16.2-1-2.6-3.4-1.4-7 3.5z"/>
	</g>
</svg>