<?xml version="1.0" standalone="no"?>
<!DOCTYPE svg PUBLIC "-//W3C//DTD SVG 20010904//EN"
 "http://www.w3.org/TR/2001/REC-SVG-20010904/DTD/svg10.dtd">
<svg version="1.0" xmlns="http://www.w3.org/2000/svg"
 width="512.000000pt" height="512.000000pt" viewBox="0 0 512.000000 512.000000"
 preserveAspectRatio="xMidYMid meet">

<g transform="translate(0.000000,512.000000) scale(0.100000,-0.100000)"
fill="#4C4570" stroke="none">
<path d="M2425 5110 c-563 -64 -1020 -490 -1120 -1045 -21 -116 -21 -332 -1
-447 90 -501 462 -893 968 -1019 81 -21 117 -24 288 -24 171 0 207 3 288 24
506 126 878 518 968 1019 20 115 20 331 -1 447 -85 472 -440 868 -899 1000
-156 44 -341 61 -491 45z"/>
<path d="M1417 2690 c-180 -114 -378 -288 -509 -447 -159 -194 -302 -459 -386
-715 -55 -168 -109 -410 -99 -449 7 -26 179 -213 304 -330 430 -403 972 -660
1538 -730 129 -16 461 -16 590 0 566 70 1108 327 1538 730 125 117 297 304
304 330 10 39 -44 281 -99 449 -84 256 -227 521 -386 715 -80 96 -259 269
-354 340 -81 60 -232 157 -246 157 -4 0 -32 -25 -62 -56 -192 -196 -467 -338
-760 -390 -103 -18 -326 -21 -435 -5 -288 43 -589 195 -785 395 -30 31 -59 56
-65 55 -5 0 -45 -22 -88 -49z"/>
</g>
</svg>
